<svg width="1260" height="1575" viewBox="0 0 1260 1575" fill="none" xmlns="http://www.w3.org/2000/svg">
<g clip-path="url(#clip0_2_30)">
<rect width="1260" height="1575" fill="#FC5700"/>
<foreignObject x="568.881" y="-56.418" width="1053.13" height="1436.31"><div xmlns="http://www.w3.org/1999/xhtml" style="backdrop-filter:blur(28.21px);clip-path:url(#bgblur_1_2_30_clip_path);height:100%;width:100%"></div></foreignObject><path data-figma-bg-blur-radius="56.4179" d="M625.299 -6.10352e-05H1565.6V1323.47H719.328C667.397 1323.47 625.299 1281.37 625.299 1229.44V-6.10352e-05Z" fill="#EAE9E9" fill-opacity="0.3"/>
<foreignObject x="721.679" y="-56.418" width="1053.13" height="1436.31"><div xmlns="http://www.w3.org/1999/xhtml" style="backdrop-filter:blur(28.21px);clip-path:url(#bgblur_2_2_30_clip_path);height:100%;width:100%"></div></foreignObject><path data-figma-bg-blur-radius="56.4179" d="M778.097 -6.10352e-05H1718.4V1323.47H872.127C820.195 1323.47 778.097 1281.37 778.097 1229.44V-6.10352e-05Z" fill="#EAE9E9" fill-opacity="0.3"/>
<g filter="url(#filter2_df_2_30)">
<path d="M2619.08 -333.879C2532.91 -483.127 2402.56 -598.719 2256.71 -655.224C2110.86 -711.73 1961.45 -704.521 1841.36 -635.183L633.83 61.9819C513.734 131.319 432.787 257.105 408.797 411.669C384.806 566.232 419.738 736.912 505.906 886.16C592.075 1035.41 722.422 1151 868.273 1207.51C1014.12 1264.01 1163.53 1256.8 1283.63 1187.46L2491.15 490.3C2611.25 420.962 2692.2 295.176 2716.19 140.613C2740.18 -13.9509 2705.25 -184.631 2619.08 -333.879Z" fill="url(#paint0_linear_2_30)"/>
</g>
<g filter="url(#filter3_df_2_30)">
<path d="M2125.65 796.206C2044.31 655.321 1910.34 552.519 1753.2 510.414C1596.07 468.31 1428.64 490.352 1287.76 571.692L-128.794 1389.54C-269.678 1470.88 -372.481 1604.85 -414.585 1761.99C-456.69 1919.12 -434.648 2086.55 -353.308 2227.43C-271.968 2368.32 -137.994 2471.12 19.1425 2513.23C176.279 2555.33 343.705 2533.29 484.59 2451.95L1901.14 1634.1C2042.02 1552.76 2144.83 1418.79 2186.93 1261.65C2229.03 1104.52 2206.99 937.09 2125.65 796.206Z" fill="url(#paint1_linear_2_30)"/>
</g>
<foreignObject x="874.478" y="-56.418" width="1053.13" height="1436.31"><div xmlns="http://www.w3.org/1999/xhtml" style="backdrop-filter:blur(28.21px);clip-path:url(#bgblur_3_2_30_clip_path);height:100%;width:100%"></div></foreignObject><path data-figma-bg-blur-radius="56.4179" d="M930.896 -6.10352e-05H1871.19V1323.47H1024.93C972.994 1323.47 930.896 1281.37 930.896 1229.44V-6.10352e-05Z" fill="#EAE9E9" fill-opacity="0.3"/>
<foreignObject x="1027.28" y="-56.418" width="1053.13" height="1436.31"><div xmlns="http://www.w3.org/1999/xhtml" style="backdrop-filter:blur(28.21px);clip-path:url(#bgblur_4_2_30_clip_path);height:100%;width:100%"></div></foreignObject><path data-figma-bg-blur-radius="56.4179" d="M1083.69 -6.10352e-05H2023.99V1323.47H1177.72C1125.79 1323.47 1083.69 1281.37 1083.69 1229.44V-6.10352e-05Z" fill="#EAE9E9" fill-opacity="0.3"/>
</g>
<defs>
<clipPath id="bgblur_1_2_30_clip_path" transform="translate(-568.881 56.418)"><path d="M625.299 -6.10352e-05H1565.6V1323.47H719.328C667.397 1323.47 625.299 1281.37 625.299 1229.44V-6.10352e-05Z"/>
</clipPath><clipPath id="bgblur_2_2_30_clip_path" transform="translate(-721.679 56.418)"><path d="M778.097 -6.10352e-05H1718.4V1323.47H872.127C820.195 1323.47 778.097 1281.37 778.097 1229.44V-6.10352e-05Z"/>
</clipPath><filter id="filter2_df_2_30" x="13.7665" y="-1080.59" width="3097.45" height="2713.45" filterUnits="userSpaceOnUse" color-interpolation-filters="sRGB">
<feFlood flood-opacity="0" result="BackgroundImageFix"/>
<feColorMatrix in="SourceAlpha" type="matrix" values="0 0 0 0 0 0 0 0 0 0 0 0 0 0 0 0 0 0 127 0" result="hardAlpha"/>
<feOffset dy="120.28"/>
<feGaussianBlur stdDeviation="60.1399"/>
<feComposite in2="hardAlpha" operator="out"/>
<feColorMatrix type="matrix" values="0 0 0 0 0.823454 0 0 0 0 0.34988 0 0 0 0 0.0565462 0 0 0 1 0"/>
<feBlend mode="normal" in2="BackgroundImageFix" result="effect1_dropShadow_2_30"/>
<feBlend mode="normal" in="SourceGraphic" in2="effect1_dropShadow_2_30" result="shape"/>
<feGaussianBlur stdDeviation="193.819" result="effect2_foregroundBlur_2_30"/>
</filter>
<filter id="filter3_df_2_30" x="-849.487" y="75.5124" width="3471.32" height="2872.62" filterUnits="userSpaceOnUse" color-interpolation-filters="sRGB">
<feFlood flood-opacity="0" result="BackgroundImageFix"/>
<feColorMatrix in="SourceAlpha" type="matrix" values="0 0 0 0 0 0 0 0 0 0 0 0 0 0 0 0 0 0 127 0" result="hardAlpha"/>
<feOffset dy="127.12"/>
<feGaussianBlur stdDeviation="63.56"/>
<feComposite in2="hardAlpha" operator="out"/>
<feColorMatrix type="matrix" values="0 0 0 0 0.823454 0 0 0 0 0.34988 0 0 0 0 0.0565462 0 0 0 1 0"/>
<feBlend mode="normal" in2="BackgroundImageFix" result="effect1_dropShadow_2_30"/>
<feBlend mode="normal" in="SourceGraphic" in2="effect1_dropShadow_2_30" result="shape"/>
<feGaussianBlur stdDeviation="207" result="effect2_foregroundBlur_2_30"/>
</filter>
<clipPath id="bgblur_3_2_30_clip_path" transform="translate(-874.478 56.418)"><path d="M930.896 -6.10352e-05H1871.19V1323.47H1024.93C972.994 1323.47 930.896 1281.37 930.896 1229.44V-6.10352e-05Z"/>
</clipPath><clipPath id="bgblur_4_2_30_clip_path" transform="translate(-1027.28 56.418)"><path d="M1083.69 -6.10352e-05H2023.99V1323.47H1177.72C1125.79 1323.47 1083.69 1281.37 1083.69 1229.44V-6.10352e-05Z"/>
</clipPath><linearGradient id="paint0_linear_2_30" x1="2619.08" y1="-333.879" x2="505.906" y2="886.16" gradientUnits="userSpaceOnUse">
<stop stop-color="#FFBC99"/>
<stop offset="1" stop-color="#FF762E"/>
</linearGradient>
<linearGradient id="paint1_linear_2_30" x1="2125.65" y1="796.206" x2="-353.308" y2="2227.43" gradientUnits="userSpaceOnUse">
<stop stop-color="#FBDDCB"/>
<stop offset="1" stop-color="#F2813B"/>
</linearGradient>
<clipPath id="clip0_2_30">
<rect width="1260" height="1575" fill="white"/>
</clipPath>
</defs>
</svg>
